<svg width="554" height="554" viewBox="0 0 554 554" fill="none" xmlns="http://www.w3.org/2000/svg">
<circle cx="277" cy="277" r="271.377" stroke="#F5F8FE" stroke-width="11.2452"/>
<circle cx="277.5" cy="275.5" r="106.411" fill="#FDFDFD" stroke="#6293F2" stroke-width="8.17834"/>
<path d="M201.652 268.507C201.687 268.357 201.727 268.209 201.776 268.063C201.875 267.771 202.004 267.491 202.158 267.227C202.236 267.094 202.319 266.966 202.409 266.842C202.857 266.223 203.455 265.715 204.149 265.379C204.215 265.348 204.273 265.308 204.331 265.268C204.142 264.669 204.101 264.046 204.209 263.442C203.08 263.547 202.04 263.775 201.096 264.111C200.208 264.944 199.523 265.99 199.127 267.154C199.081 267.291 199.043 267.429 199.005 267.568C198.98 267.66 198.954 267.752 198.932 267.845C198.8 268.406 198.73 268.981 198.73 269.565V281.36C198.73 283.611 199.323 285.691 200.355 287.447C200.818 287.567 201.301 287.635 201.799 287.643C202.465 287.632 203.085 287.508 203.673 287.265C202.336 285.723 201.529 283.659 201.529 281.36V269.565C201.53 269.205 201.572 268.851 201.652 268.507Z" fill="#B4ED62"/>
<path d="M221.092 281.359V271.563C221.092 269.141 220.535 266.947 219.465 265.053C219.19 264.566 218.883 264.098 218.54 263.652C218.505 263.606 218.47 263.56 218.435 263.515C218.17 263.181 217.886 262.858 217.583 262.549C217.572 262.538 217.562 262.527 217.552 262.516C217.22 262.18 216.866 261.859 216.489 261.555C214.581 260.011 212.145 258.953 209.421 258.455C209.521 258.798 209.577 259.159 209.577 259.534C209.577 259.892 209.528 260.239 209.436 260.568C209.501 260.595 209.565 260.624 209.627 260.654C210.376 261.016 211.061 261.473 211.682 261.999C212.822 262.448 213.852 263.032 214.733 263.745C217.062 265.629 218.293 268.333 218.293 271.563V281.359C218.293 283 217.839 284.536 217.051 285.847C216.877 286.138 216.684 286.416 216.478 286.684C216.261 286.965 216.03 287.234 215.781 287.486C215.684 287.584 215.585 287.68 215.483 287.774C215.28 287.962 215.068 288.139 214.848 288.307C214.628 288.475 214.4 288.632 214.164 288.778C213.692 289.071 213.191 289.32 212.665 289.519C212.627 289.533 212.589 289.545 212.55 289.559C212.259 289.961 211.948 290.352 211.612 290.724C210.867 291.551 210.076 292.263 209.245 292.868C209.334 292.873 209.421 292.88 209.51 292.882C209.545 292.885 209.581 292.886 209.617 292.886H209.813C209.848 292.886 209.883 292.885 209.918 292.882C216.107 292.721 221.092 287.613 221.092 281.359Z" fill="#B4ED62"/>
<path d="M209.819 289.093C210.274 288.588 210.679 288.047 211.034 287.478C212.172 285.656 212.785 283.542 212.785 281.359V269.564C212.785 267.481 211.899 265.513 210.423 264.121C209.882 263.611 209.265 263.176 208.579 262.845C208.579 262.845 208.578 262.845 208.578 262.845C208.498 262.806 208.416 262.778 208.333 262.755C208.322 262.752 208.311 262.749 208.301 262.746C208.222 262.727 208.142 262.716 208.063 262.71C208.048 262.709 208.034 262.709 208.02 262.708C207.937 262.705 207.855 262.708 207.774 262.72C207.767 262.721 207.76 262.724 207.752 262.725C207.68 262.736 207.609 262.755 207.54 262.777C207.518 262.784 207.497 262.793 207.475 262.801C207.415 262.824 207.357 262.851 207.3 262.882C207.285 262.89 207.27 262.897 207.255 262.906C207.187 262.947 207.122 262.994 207.061 263.047C207.046 263.059 207.033 263.073 207.019 263.086C206.972 263.131 206.928 263.178 206.887 263.229C206.873 263.247 206.858 263.265 206.844 263.284C206.795 263.352 206.749 263.424 206.712 263.502C206.408 264.136 206.624 264.881 207.184 265.267C207.242 265.307 207.3 265.347 207.366 265.379C207.764 265.571 208.127 265.818 208.447 266.108C209.408 266.978 209.986 268.234 209.986 269.564V281.359C209.986 283.525 209.19 285.601 207.744 287.206C207.734 287.218 207.723 287.228 207.712 287.24C207.559 287.409 207.404 287.568 207.247 287.721C206.749 288.208 206.232 288.619 205.694 288.954C205.462 289.097 205.226 289.228 204.986 289.344C204.862 289.403 204.738 289.459 204.612 289.512C203.927 289.796 203.207 289.969 202.451 290.038H202.45C202.236 290.058 202.02 290.072 201.8 290.074C200.764 290.062 199.77 289.867 198.85 289.519C198.828 289.511 198.807 289.501 198.785 289.493C198.676 289.451 198.567 289.408 198.461 289.361C198.204 289.249 197.954 289.126 197.711 288.991C195.037 287.504 193.223 284.64 193.223 281.36V271.576C193.271 268.749 194.24 266.36 195.943 264.567C196.308 264.183 196.707 263.826 197.137 263.498C197.93 262.894 198.834 262.39 199.832 261.992C201.543 261.309 203.536 260.941 205.758 260.941C205.758 260.941 205.758 260.94 205.758 260.94C205.758 260.94 205.759 260.941 205.759 260.941C206.141 260.94 206.486 260.786 206.739 260.536C206.742 260.533 206.745 260.532 206.748 260.529C206.798 260.479 206.841 260.422 206.882 260.365C206.894 260.35 206.908 260.337 206.919 260.32C206.954 260.268 206.981 260.211 207.009 260.154C207.021 260.129 207.037 260.107 207.048 260.082C207.072 260.024 207.088 259.962 207.104 259.901C207.112 259.872 207.124 259.847 207.13 259.818C207.148 259.726 207.158 259.632 207.158 259.535C207.158 259.508 207.152 259.483 207.15 259.457C207.135 259.175 207.039 258.918 206.883 258.704C206.628 258.357 206.221 258.129 205.758 258.129C205.758 258.129 205.758 258.129 205.758 258.129C204.476 258.129 203.254 258.241 202.097 258.45C198.919 259.023 196.242 260.352 194.259 262.279C193.197 263.311 192.337 264.516 191.699 265.864C191.538 266.205 191.392 266.555 191.26 266.914C191.092 267.371 190.949 267.843 190.831 268.329C190.583 269.343 190.442 270.415 190.424 271.541C190.424 271.548 190.424 271.556 190.424 271.564V281.359C190.424 287.614 195.409 292.722 201.598 292.883C201.632 292.885 201.667 292.887 201.703 292.887H201.899C201.935 292.887 201.97 292.885 202.006 292.883C202.039 292.882 202.072 292.878 202.106 292.877C203.375 292.832 204.579 292.572 205.71 292.097C205.729 292.089 205.748 292.081 205.767 292.072C206.881 291.597 207.926 290.912 208.897 290.023C209.211 289.734 209.52 289.425 209.819 289.093Z" fill="#6293F2"/>
<path d="M237.71 290.881C234.338 290.881 231.814 289.999 230.139 288.236C228.463 286.451 227.626 283.695 227.626 279.97C227.626 276.09 228.463 273.28 230.139 271.538C231.814 269.797 234.338 268.926 237.71 268.926C241.105 268.926 243.629 269.797 245.282 271.538C246.957 273.28 247.795 276.09 247.795 279.97C247.795 283.695 246.957 286.451 245.282 288.236C243.629 289.999 241.105 290.881 237.71 290.881ZM237.71 287.839C239.937 287.839 241.568 287.233 242.604 286.021C243.662 284.786 244.191 282.769 244.191 279.97C244.191 277.016 243.662 274.955 242.604 273.787C241.568 272.596 239.937 272.001 237.71 272.001C235.506 272.001 233.875 272.596 232.817 273.787C231.781 274.955 231.263 277.016 231.263 279.97C231.263 282.769 231.781 284.786 232.817 286.021C233.875 287.233 235.506 287.839 237.71 287.839ZM251.31 290.551V274.878H254.616L254.781 276.531C255.487 275.98 256.324 275.517 257.294 275.142C258.286 274.746 259.377 274.547 260.568 274.547C262.596 274.547 264.073 275.021 264.998 275.969C265.924 276.917 266.387 278.394 266.387 280.4V290.551H262.816V280.565C262.816 279.353 262.563 278.504 262.056 278.019C261.571 277.534 260.645 277.292 259.278 277.292C258.463 277.292 257.658 277.457 256.864 277.788C256.093 278.118 255.443 278.548 254.914 279.077V290.551H251.31ZM278.038 290.881C275.304 290.881 273.188 290.209 271.689 288.864C270.19 287.52 269.441 285.459 269.441 282.681C269.441 280.168 270.08 278.184 271.359 276.729C272.637 275.275 274.577 274.547 277.178 274.547C279.559 274.547 281.344 275.175 282.535 276.432C283.747 277.666 284.353 279.264 284.353 281.226V284.136H272.88C273.056 285.657 273.607 286.704 274.533 287.277C275.459 287.85 276.869 288.137 278.765 288.137C279.559 288.137 280.374 288.06 281.212 287.905C282.05 287.751 282.777 287.553 283.394 287.31V289.955C282.689 290.264 281.873 290.495 280.947 290.65C280.044 290.804 279.074 290.881 278.038 290.881ZM272.88 281.788H281.179V280.697C281.179 279.617 280.881 278.779 280.286 278.184C279.691 277.567 278.688 277.259 277.277 277.259C275.602 277.259 274.445 277.622 273.805 278.35C273.188 279.077 272.88 280.223 272.88 281.788ZM290.251 290.551V272.067H283.44V269.257H300.634V272.067H293.855V290.551H290.251ZM300.713 290.551V274.878H304.019L304.218 276.696C304.967 276.211 305.86 275.771 306.896 275.374C307.932 274.977 308.957 274.702 309.971 274.547V277.292C309.354 277.402 308.682 277.567 307.954 277.788C307.249 277.986 306.576 278.217 305.937 278.482C305.298 278.724 304.758 278.978 304.317 279.242V290.551H300.713ZM316.488 290.881C315.496 290.881 314.57 290.705 313.711 290.352C312.873 289.999 312.201 289.47 311.694 288.765C311.187 288.038 310.933 287.145 310.933 286.087C310.933 284.588 311.44 283.387 312.454 282.483C313.49 281.557 315.077 281.094 317.216 281.094H322.241V280.4C322.241 279.65 322.12 279.055 321.878 278.614C321.657 278.173 321.238 277.854 320.621 277.655C320.026 277.457 319.144 277.358 317.976 277.358C316.124 277.358 314.394 277.633 312.785 278.184V275.506C313.49 275.22 314.35 274.988 315.364 274.812C316.378 274.635 317.469 274.547 318.637 274.547C320.93 274.547 322.671 275.01 323.862 275.936C325.074 276.862 325.68 278.372 325.68 280.466V290.551H322.605L322.374 288.963C321.734 289.581 320.941 290.055 319.993 290.385C319.067 290.716 317.899 290.881 316.488 290.881ZM317.447 288.302C318.527 288.302 319.464 288.126 320.258 287.773C321.073 287.398 321.734 286.902 322.241 286.285V283.541H317.282C316.224 283.541 315.452 283.75 314.967 284.169C314.504 284.566 314.273 285.183 314.273 286.021C314.273 286.836 314.548 287.42 315.099 287.773C315.651 288.126 316.433 288.302 317.447 288.302ZM336.158 290.881C334.747 290.881 333.501 290.639 332.421 290.154C331.341 289.669 330.503 288.864 329.908 287.74C329.313 286.616 329.016 285.106 329.016 283.21C329.016 281.336 329.335 279.76 329.974 278.482C330.614 277.181 331.495 276.2 332.62 275.539C333.766 274.878 335.055 274.547 336.488 274.547C337.436 274.547 338.274 274.657 339.001 274.878C339.751 275.098 340.467 275.44 341.15 275.903V268.265H344.754V290.551H341.679L341.448 288.996C340.743 289.636 339.971 290.11 339.133 290.418C338.296 290.727 337.304 290.881 336.158 290.881ZM337.116 288.17C338.726 288.17 340.07 287.619 341.15 286.517V278.68C340.114 277.754 338.814 277.292 337.249 277.292C335.728 277.292 334.581 277.799 333.81 278.813C333.038 279.827 332.653 281.303 332.653 283.243C332.653 285.117 333.005 286.406 333.711 287.112C334.438 287.817 335.573 288.17 337.116 288.17ZM356.534 290.881C353.801 290.881 351.685 290.209 350.186 288.864C348.687 287.52 347.937 285.459 347.937 282.681C347.937 280.168 348.577 278.184 349.855 276.729C351.134 275.275 353.073 274.547 355.675 274.547C358.055 274.547 359.841 275.175 361.031 276.432C362.243 277.666 362.85 279.264 362.85 281.226V284.136H351.376C351.552 285.657 352.104 286.704 353.029 287.277C353.955 287.85 355.366 288.137 357.262 288.137C358.055 288.137 358.871 288.06 359.708 287.905C360.546 287.751 361.273 287.553 361.891 287.31V289.955C361.185 290.264 360.37 290.495 359.444 290.65C358.54 290.804 357.57 290.881 356.534 290.881ZM351.376 281.788H359.675V280.697C359.675 279.617 359.378 278.779 358.783 278.184C358.187 277.567 357.184 277.259 355.774 277.259C354.098 277.259 352.941 277.622 352.302 278.35C351.685 279.077 351.376 280.223 351.376 281.788Z" fill="#3C3C3C"/>
</svg>
