<svg width="28" height="21" viewBox="0 0 28 21" fill="none" xmlns="http://www.w3.org/2000/svg">
<path d="M0 1.75C0 0.783502 0.783502 0 1.75 0H26.25C27.2165 0 28 0.783502 28 1.75C28 2.7165 27.2165 3.5 26.25 3.5H1.75C0.783502 3.5 0 2.7165 0 1.75ZM0 10.5C0 9.5335 0.783502 8.75 1.75 8.75H26.25C27.2165 8.75 28 9.5335 28 10.5C28 11.4665 27.2165 12.25 26.25 12.25H1.75C0.783502 12.25 0 11.4665 0 10.5ZM0 19.25C0 18.2835 0.783502 17.5 1.75 17.5H26.25C27.2165 17.5 28 18.2835 28 19.25C28 20.2165 27.2165 21 26.25 21H1.75C0.783502 21 0 20.2165 0 19.25Z" fill="#3C3C3C"/>
</svg>
