<svg width="33" height="38" viewBox="0 0 33 38" fill="none" xmlns="http://www.w3.org/2000/svg">
<path d="M12.0824 11.3454C12.1197 11.1819 12.1623 11.0196 12.2157 10.8606C12.3226 10.5412 12.461 10.2348 12.627 9.94577C12.7101 9.80124 12.8001 9.66108 12.8963 9.52551C13.3785 8.84877 14.0222 8.29338 14.7693 7.92625C14.8397 7.8917 14.9023 7.84774 14.9648 7.804C14.7618 7.14978 14.7176 6.46845 14.8333 5.80811C13.6186 5.92334 12.4995 6.17237 11.4843 6.53994C10.5284 7.45 9.79126 8.59382 9.36516 9.86685C9.31524 10.0158 9.27518 10.1673 9.23405 10.3188C9.20663 10.4194 9.17943 10.52 9.15586 10.6217C9.01361 11.235 8.93799 11.8643 8.93799 12.5019V25.3971C8.93799 27.8583 9.57596 30.1321 10.6869 32.0528C11.1852 32.1831 11.705 32.2579 12.2399 32.2664C12.9573 32.2548 13.6242 32.1188 14.2566 31.8538C12.8181 30.168 11.95 27.9112 11.95 25.3971V12.5019C11.9505 12.109 11.9965 11.7222 12.0824 11.3454Z" fill="#B4ED62"/>
<path d="M33.0003 25.397V14.6877C33.0003 12.04 32.4011 9.64152 31.2499 7.57038C30.9538 7.03773 30.6235 6.52586 30.2543 6.03847C30.2166 5.98861 30.1792 5.93854 30.1406 5.88913C29.8555 5.52353 29.5502 5.17106 29.2239 4.83301C29.2126 4.82099 29.2021 4.80831 29.1905 4.7965C28.8336 4.42937 28.4525 4.07864 28.0474 3.74562C25.9944 2.05758 23.3725 0.901515 20.4415 0.357056C20.5492 0.731618 20.6096 1.12696 20.6096 1.53672C20.6096 1.92812 20.5567 2.3075 20.4579 2.6672C20.5276 2.69672 20.5963 2.72799 20.664 2.76144C21.4691 3.15678 22.2069 3.65618 22.8746 4.23125C24.1017 4.72214 25.2102 5.36084 26.1572 6.13992C28.6633 8.20056 29.9878 11.1566 29.9878 14.6882V25.3974C29.9878 27.1911 29.4998 28.8704 28.6521 30.3043C28.4643 30.622 28.2567 30.9264 28.0349 31.2185C27.8019 31.5257 27.5527 31.8198 27.2854 32.0956C27.181 32.2031 27.0741 32.3083 26.9651 32.4106C26.7466 32.6157 26.5184 32.8101 26.2817 32.9934C26.0448 33.1768 25.7991 33.3487 25.5454 33.5087C25.0379 33.8289 24.4985 34.1007 23.9329 34.318C23.892 34.3335 23.8502 34.3469 23.8091 34.362C23.4957 34.8021 23.1609 35.2287 22.7995 35.6361C21.9976 36.54 21.1471 37.3187 20.2529 37.9801C20.348 37.9849 20.4423 37.9926 20.5379 37.9952C20.5758 37.998 20.6139 37.9996 20.6525 37.9996H20.8633C20.9014 37.9996 20.9389 37.998 20.9764 37.9952C27.6361 37.819 33.0003 32.2351 33.0003 25.397Z" fill="#B4ED62"/>
<path d="M20.8696 33.8525C21.3591 33.3006 21.7946 32.7089 22.1768 32.0873C23.4009 30.0953 24.0609 27.7841 24.0609 25.3972V12.502C24.0609 10.2245 23.107 8.07264 21.5193 6.55121C20.9375 5.99363 20.2728 5.51827 19.5352 5.15617C19.5347 5.15595 19.5343 5.15596 19.5341 5.15574C19.448 5.11354 19.3595 5.08249 19.2706 5.058C19.2588 5.05494 19.2473 5.05078 19.2357 5.04794C19.1506 5.02673 19.0649 5.0147 18.9797 5.00902C18.9643 5.00793 18.9488 5.00706 18.9336 5.0064C18.8447 5.00312 18.756 5.00685 18.6688 5.01975C18.6609 5.02084 18.6534 5.02346 18.6455 5.02455C18.5679 5.03746 18.4919 5.05734 18.4171 5.08205C18.3936 5.08992 18.3704 5.0989 18.3473 5.10765C18.2828 5.13279 18.2198 5.16253 18.1592 5.19642C18.1429 5.20561 18.1262 5.21304 18.1103 5.22266C18.0369 5.26749 17.967 5.31908 17.9013 5.37659C17.8858 5.39037 17.8719 5.40567 17.8567 5.4201C17.8061 5.46842 17.7588 5.52046 17.7147 5.57622C17.699 5.59612 17.6832 5.6158 17.6684 5.63657C17.6155 5.71091 17.5662 5.78897 17.5259 5.87469C17.199 6.56783 17.431 7.38255 18.0341 7.80412C18.0966 7.84807 18.1594 7.89182 18.2301 7.92637C18.6583 8.1365 19.0487 8.40654 19.3931 8.7236C20.427 9.67433 21.0495 11.0482 21.0495 12.502V25.3972C21.0495 27.7653 20.1929 30.0353 18.6369 31.7894C18.6256 31.8021 18.614 31.8137 18.6026 31.8266C18.4377 32.0109 18.2704 32.185 18.1016 32.3527C17.5658 32.8845 17.0101 33.3347 16.4304 33.7001C16.1808 33.8573 15.9269 34.0001 15.6686 34.1269C15.536 34.1918 15.4021 34.2528 15.2669 34.3101C14.53 34.6213 13.7553 34.8107 12.9408 34.8861H12.9406C12.7103 34.9075 12.4779 34.9224 12.2409 34.925C11.1257 34.9121 10.0565 34.6987 9.06696 34.3187C9.04318 34.3095 9.02026 34.299 8.99669 34.2896C8.87951 34.2435 8.76254 34.1964 8.64771 34.1455C8.37179 34.0235 8.1025 33.8881 7.84093 33.7405C4.96386 32.1152 3.01161 28.9847 3.01161 25.3978V14.7015C3.06366 11.611 4.10609 8.99909 5.93881 7.03882C6.33149 6.61856 6.76037 6.22848 7.22374 5.86988C8.07723 5.20931 9.0496 4.65894 10.1237 4.22338C11.9646 3.47731 14.1088 3.07432 16.4994 3.07432C16.4996 3.07432 16.4998 3.07411 16.5 3.07411C16.5002 3.07411 16.5004 3.07432 16.5006 3.07432C16.9117 3.07411 17.2834 2.90487 17.5553 2.6322C17.5585 2.62914 17.5621 2.62696 17.5651 2.6239C17.6187 2.56924 17.6645 2.50757 17.7095 2.44525C17.7217 2.4282 17.7374 2.41399 17.7489 2.39628C17.7866 2.33942 17.8156 2.27644 17.8458 2.21456C17.8588 2.18744 17.8764 2.16319 17.8878 2.1352C17.9139 2.07201 17.9304 2.00422 17.9482 1.93731C17.9563 1.90648 17.9694 1.87826 17.9756 1.84677C17.9957 1.74663 18.0062 1.64322 18.0062 1.53718C18.0062 1.50809 17.9994 1.48075 17.9979 1.45211C17.9812 1.14446 17.8781 0.862592 17.71 0.629284C17.436 0.249474 16.9981 0 16.5002 0C16.5 0 16.4998 0 16.4996 0C15.1202 0 13.8057 0.122663 12.5604 0.350943C9.14044 0.978274 6.26079 2.43038 4.12687 4.53738C2.98418 5.66544 2.05808 6.98262 1.37234 8.4566C1.19903 8.8292 1.04157 9.21209 0.899754 9.6048C0.71916 10.1049 0.565344 10.6209 0.437879 11.1518C0.171808 12.2608 0.0199214 13.4326 0.000212476 14.6632C-1.75166e-06 14.6715 4.5384e-10 14.6801 4.5384e-10 14.6884V25.3976C4.5384e-10 32.2357 5.36404 37.8196 12.0231 37.9956C12.0604 37.9985 12.0981 38 12.1362 38H12.347C12.3858 38 12.4243 37.9985 12.462 37.9956C12.4984 37.9945 12.534 37.991 12.5704 37.9899C13.9357 37.9399 15.2307 37.6563 16.4484 37.1372C16.4687 37.1284 16.4889 37.1188 16.509 37.1098C17.7085 36.5896 18.8327 35.8416 19.8769 34.8697C20.2156 34.5531 20.5474 34.2157 20.8696 33.8525Z" fill="#6293F2"/>
</svg>
