<svg width="238" height="67" viewBox="0 0 238 67" fill="none" xmlns="http://www.w3.org/2000/svg">
<path d="M15.744 23.8312C15.7926 23.6246 15.8481 23.4196 15.9176 23.2188C16.0569 22.8153 16.2373 22.4283 16.4536 22.0632C16.5619 21.8806 16.6791 21.7036 16.8045 21.5323C17.4328 20.6775 18.2717 19.976 19.245 19.5122C19.3369 19.4686 19.4184 19.413 19.4999 19.3578C19.2353 18.5314 19.1778 17.6708 19.3285 16.8367C17.7458 16.9822 16.2875 17.2968 14.9646 17.7611C13.7191 18.9106 12.7586 20.3555 12.2033 21.9635C12.1383 22.1516 12.0861 22.343 12.0325 22.5344C11.9968 22.6615 11.9613 22.7885 11.9306 22.917C11.7453 23.6917 11.6467 24.4866 11.6467 25.292V41.5806C11.6467 44.6895 12.478 47.5617 13.9257 49.9879C14.575 50.1525 15.2522 50.2469 15.9492 50.2577C16.884 50.2431 17.753 50.0713 18.5771 49.7365C16.7026 47.607 15.5715 44.7564 15.5715 41.5806V25.292C15.5721 24.7957 15.6321 24.307 15.744 23.8312Z" fill="#B4ED62"/>
<path d="M43.0001 41.5807V28.0532C43.0001 24.7087 42.2194 21.679 40.7192 19.0629C40.3335 18.39 39.903 17.7435 39.422 17.1278C39.3729 17.0648 39.3241 17.0016 39.2738 16.9392C38.9023 16.4774 38.5045 16.0321 38.0794 15.6051C38.0646 15.5899 38.0509 15.5739 38.0358 15.559C37.5708 15.0953 37.0742 14.6522 36.5463 14.2316C33.8712 12.0993 30.4548 10.639 26.6355 9.95129C26.776 10.4244 26.8547 10.9238 26.8547 11.4414C26.8547 11.9358 26.7857 12.415 26.657 12.8694C26.7478 12.9067 26.8374 12.9462 26.9256 12.9884C27.9746 13.4878 28.936 14.1186 29.8061 14.845C31.405 15.4651 32.8493 16.2719 34.0834 17.256C37.3488 19.8589 39.0748 23.5928 39.0748 28.0537V41.5812C39.0748 43.8469 38.4389 45.9681 37.3343 47.7794C37.0895 48.1807 36.819 48.5652 36.5301 48.9342C36.2264 49.3223 35.9018 49.6937 35.5534 50.042C35.4174 50.1779 35.2781 50.3108 35.1361 50.44C34.8513 50.6991 34.554 50.9447 34.2456 51.1761C33.9368 51.4079 33.6167 51.6249 33.2862 51.8271C32.6249 52.2315 31.922 52.5748 31.185 52.8493C31.1317 52.869 31.0773 52.8858 31.0237 52.9049C30.6153 53.4609 30.179 53.9997 29.7081 54.5143C28.6632 55.6561 27.555 56.6397 26.3899 57.4752C26.5138 57.4812 26.6367 57.4909 26.7612 57.4942C26.8106 57.4978 26.8603 57.4997 26.9105 57.4997H27.1852C27.2349 57.4997 27.2837 57.4978 27.3326 57.4942C36.0103 57.2716 43.0001 50.2183 43.0001 41.5807Z" fill="#B4ED62"/>
<path d="M27.1937 52.261C27.8316 51.5639 28.3991 50.8165 28.8971 50.0313C30.4921 47.5151 31.3521 44.5957 31.3521 41.5807V25.292C31.3521 22.4151 30.1091 19.697 28.0404 17.7752C27.2822 17.0709 26.416 16.4704 25.4549 16.0131C25.4544 16.0128 25.4538 16.0128 25.4535 16.0125C25.3413 15.9592 25.226 15.92 25.1102 15.8891C25.0948 15.8852 25.0798 15.8799 25.0647 15.8763C24.9539 15.8495 24.8422 15.8344 24.7311 15.8272C24.711 15.8258 24.6909 15.8247 24.6711 15.8239C24.5552 15.8197 24.4397 15.8244 24.3261 15.8407C24.3157 15.8421 24.306 15.8454 24.2956 15.8468C24.1946 15.8631 24.0955 15.8882 23.9981 15.9194C23.9674 15.9294 23.9372 15.9407 23.9071 15.9518C23.823 15.9835 23.741 16.0211 23.662 16.0639C23.6408 16.0755 23.619 16.0849 23.5983 16.097C23.5026 16.1537 23.4116 16.2188 23.3259 16.2915C23.3058 16.3089 23.2876 16.3282 23.2678 16.3464C23.2019 16.4075 23.1403 16.4732 23.0827 16.5436C23.0624 16.5688 23.0417 16.5936 23.0225 16.6199C22.9535 16.7138 22.8893 16.8124 22.8368 16.9207C22.4108 17.7962 22.7132 18.8253 23.499 19.3578C23.5805 19.4134 23.6623 19.4686 23.7544 19.5123C24.3124 19.7777 24.821 20.1188 25.2698 20.5193C26.617 21.7202 27.4282 23.4556 27.4282 25.292V41.5807C27.4282 44.5719 26.3119 47.4394 24.2845 49.6551C24.2697 49.6711 24.2546 49.6857 24.2398 49.702C24.0249 49.9349 23.8068 50.1547 23.5869 50.3666C22.8887 51.0383 22.1646 51.607 21.4093 52.0685C21.0841 52.2671 20.7533 52.4475 20.4166 52.6077C20.2438 52.6897 20.0694 52.7668 19.8932 52.8391C18.933 53.2322 17.9236 53.4714 16.8623 53.5666H16.862C16.5619 53.5937 16.2591 53.6125 15.9503 53.6158C14.4971 53.5995 13.1039 53.3299 11.8145 52.8499C11.7835 52.8383 11.7537 52.825 11.723 52.8132C11.5703 52.7549 11.4179 52.6955 11.2682 52.6311C10.9087 52.477 10.5578 52.3061 10.217 52.1196C6.46806 50.0666 3.92422 46.1123 3.92422 41.5815V28.0703C3.99205 24.1665 5.35037 20.8673 7.73845 18.3911C8.25012 17.8603 8.80897 17.3676 9.41276 16.9146C10.5249 16.0802 11.7919 15.385 13.1915 14.8348C15.5902 13.8924 18.3842 13.3834 21.4992 13.3834C21.4994 13.3834 21.4997 13.3831 21.5 13.3831C21.5003 13.3831 21.5006 13.3834 21.5008 13.3834C22.0365 13.3831 22.5208 13.1693 22.8751 12.8249C22.8793 12.821 22.884 12.8183 22.8879 12.8144C22.9577 12.7454 23.0174 12.6675 23.076 12.5887C23.092 12.5672 23.1123 12.5492 23.1274 12.5269C23.1765 12.4551 23.2142 12.3755 23.2536 12.2973C23.2706 12.2631 23.2935 12.2325 23.3083 12.1971C23.3424 12.1173 23.3638 12.0316 23.387 11.9471C23.3976 11.9082 23.4147 11.8725 23.4227 11.8328C23.449 11.7063 23.4627 11.5757 23.4627 11.4417C23.4627 11.405 23.4537 11.3704 23.4518 11.3342C23.43 10.9456 23.2957 10.5896 23.0766 10.2949C22.7196 9.81513 22.149 9.5 21.5003 9.5C21.5 9.5 21.4997 9.5 21.4994 9.5C19.702 9.5 17.9892 9.65494 16.3665 9.9433C11.9103 10.7357 8.158 12.57 5.37744 15.2314C3.88848 16.6563 2.68174 18.3202 1.7882 20.182C1.56237 20.6527 1.3572 21.1363 1.17241 21.6324C0.937088 22.264 0.73666 22.9159 0.570569 23.5865C0.223872 24.9874 0.0259582 26.4675 0.000276862 28.022C-2.28247e-06 28.0325 5.91367e-10 28.0432 5.91367e-10 28.0537V41.5812C5.91367e-10 50.2188 6.9895 57.2721 15.6664 57.4945C15.715 57.4981 15.7641 57.5 15.8138 57.5H16.0885C16.139 57.5 16.1893 57.4981 16.2384 57.4945C16.2859 57.4931 16.3322 57.4887 16.3796 57.4873C18.1586 57.424 19.8461 57.0658 21.4327 56.4101C21.4592 56.3991 21.4855 56.3869 21.5117 56.3756C23.0747 55.7185 24.5396 54.7736 25.9002 53.5459C26.3415 53.146 26.7739 52.7198 27.1937 52.261Z" fill="#6293F2"/>
<path d="M65.66 49.45C61.07 49.45 57.635 48.25 55.355 45.85C53.075 43.42 51.935 39.67 51.935 34.6C51.935 29.32 53.075 25.495 55.355 23.125C57.635 20.755 61.07 19.57 65.66 19.57C70.28 19.57 73.715 20.755 75.965 23.125C78.245 25.495 79.385 29.32 79.385 34.6C79.385 39.67 78.245 43.42 75.965 45.85C73.715 48.25 70.28 49.45 65.66 49.45ZM65.66 45.31C68.69 45.31 70.91 44.485 72.32 42.835C73.76 41.155 74.48 38.41 74.48 34.6C74.48 30.58 73.76 27.775 72.32 26.185C70.91 24.565 68.69 23.755 65.66 23.755C62.66 23.755 60.44 24.565 59 26.185C57.59 27.775 56.885 30.58 56.885 34.6C56.885 38.41 57.59 41.155 59 42.835C60.44 44.485 62.66 45.31 65.66 45.31ZM84.168 49V27.67H88.668L88.893 29.92C89.853 29.17 90.993 28.54 92.313 28.03C93.663 27.49 95.148 27.22 96.768 27.22C99.528 27.22 101.538 27.865 102.798 29.155C104.058 30.445 104.688 32.455 104.688 35.185V49H99.828V35.41C99.828 33.76 99.483 32.605 98.793 31.945C98.133 31.285 96.873 30.955 95.013 30.955C93.903 30.955 92.808 31.18 91.728 31.63C90.678 32.08 89.793 32.665 89.073 33.385V49H84.168ZM120.544 49.45C116.824 49.45 113.944 48.535 111.904 46.705C109.864 44.875 108.844 42.07 108.844 38.29C108.844 34.87 109.714 32.17 111.454 30.19C113.194 28.21 115.834 27.22 119.374 27.22C122.614 27.22 125.044 28.075 126.664 29.785C128.314 31.465 129.139 33.64 129.139 36.31V40.27H113.524C113.764 42.34 114.514 43.765 115.774 44.545C117.034 45.325 118.954 45.715 121.534 45.715C122.614 45.715 123.724 45.61 124.864 45.4C126.004 45.19 126.994 44.92 127.834 44.59V48.19C126.874 48.61 125.764 48.925 124.504 49.135C123.274 49.345 121.954 49.45 120.544 49.45ZM113.524 37.075H124.819V35.59C124.819 34.12 124.414 32.98 123.604 32.17C122.794 31.33 121.429 30.91 119.509 30.91C117.229 30.91 115.654 31.405 114.784 32.395C113.944 33.385 113.524 34.945 113.524 37.075ZM137.166 49V23.845H127.896V20.02H151.296V23.845H142.071V49H137.166ZM151.404 49V27.67H155.904L156.174 30.145C157.194 29.485 158.409 28.885 159.819 28.345C161.229 27.805 162.624 27.43 164.004 27.22V30.955C163.164 31.105 162.249 31.33 161.259 31.63C160.299 31.9 159.384 32.215 158.514 32.575C157.644 32.905 156.909 33.25 156.309 33.61V49H151.404ZM172.874 49.45C171.524 49.45 170.264 49.21 169.094 48.73C167.954 48.25 167.039 47.53 166.349 46.57C165.659 45.58 165.314 44.365 165.314 42.925C165.314 40.885 166.004 39.25 167.384 38.02C168.794 36.76 170.954 36.13 173.864 36.13H180.704V35.185C180.704 34.165 180.539 33.355 180.209 32.755C179.909 32.155 179.339 31.72 178.499 31.45C177.689 31.18 176.489 31.045 174.899 31.045C172.379 31.045 170.024 31.42 167.834 32.17V28.525C168.794 28.135 169.964 27.82 171.344 27.58C172.724 27.34 174.209 27.22 175.799 27.22C178.919 27.22 181.289 27.85 182.909 29.11C184.559 30.37 185.384 32.425 185.384 35.275V49H181.199L180.884 46.84C180.014 47.68 178.934 48.325 177.644 48.775C176.384 49.225 174.794 49.45 172.874 49.45ZM174.179 45.94C175.649 45.94 176.924 45.7 178.004 45.22C179.114 44.71 180.014 44.035 180.704 43.195V39.46H173.954C172.514 39.46 171.464 39.745 170.804 40.315C170.174 40.855 169.859 41.695 169.859 42.835C169.859 43.945 170.234 44.74 170.984 45.22C171.734 45.7 172.799 45.94 174.179 45.94ZM199.643 49.45C197.723 49.45 196.028 49.12 194.558 48.46C193.088 47.8 191.948 46.705 191.138 45.175C190.328 43.645 189.923 41.59 189.923 39.01C189.923 36.46 190.358 34.315 191.228 32.575C192.098 30.805 193.298 29.47 194.828 28.57C196.388 27.67 198.143 27.22 200.093 27.22C201.383 27.22 202.523 27.37 203.513 27.67C204.533 27.97 205.508 28.435 206.438 29.065V18.67H211.343V49H207.158L206.843 46.885C205.883 47.755 204.833 48.4 203.693 48.82C202.553 49.24 201.203 49.45 199.643 49.45ZM200.948 45.76C203.138 45.76 204.968 45.01 206.438 43.51V32.845C205.028 31.585 203.258 30.955 201.128 30.955C199.058 30.955 197.498 31.645 196.448 33.025C195.398 34.405 194.873 36.415 194.873 39.055C194.873 41.605 195.353 43.36 196.313 44.32C197.303 45.28 198.848 45.76 200.948 45.76ZM227.375 49.45C223.655 49.45 220.775 48.535 218.735 46.705C216.695 44.875 215.675 42.07 215.675 38.29C215.675 34.87 216.545 32.17 218.285 30.19C220.025 28.21 222.665 27.22 226.205 27.22C229.445 27.22 231.875 28.075 233.495 29.785C235.145 31.465 235.97 33.64 235.97 36.31V40.27H220.355C220.595 42.34 221.345 43.765 222.605 44.545C223.865 45.325 225.785 45.715 228.365 45.715C229.445 45.715 230.555 45.61 231.695 45.4C232.835 45.19 233.825 44.92 234.665 44.59V48.19C233.705 48.61 232.595 48.925 231.335 49.135C230.105 49.345 228.785 49.45 227.375 49.45ZM220.355 37.075H231.65V35.59C231.65 34.12 231.245 32.98 230.435 32.17C229.625 31.33 228.26 30.91 226.34 30.91C224.06 30.91 222.485 31.405 221.615 32.395C220.775 33.385 220.355 34.945 220.355 37.075Z" fill="#3C3C3C"/>
</svg>
