<svg width="32" height="32" viewBox="0 0 32 32" fill="none" xmlns="http://www.w3.org/2000/svg">
<g clip-path="url(#clip0_158_283)">
<path d="M14.4314 15.8357C15.267 16.3928 16.7331 16.3928 17.5689 15.8356L17.5693 15.8354L31.811 6.34087C31.3438 4.98986 30.0598 4.0166 28.5521 4.0166H3.44793C1.9401 4.0166 0.656156 4.98986 0.188965 6.34087L14.431 15.8354L14.4314 15.8357Z" fill="#B4ED62"/>
<path d="M18.6093 17.3955L18.6088 17.3958C17.8775 17.8833 16.9386 18.1272 16 18.1272C15.0612 18.1272 14.1227 17.8834 13.3913 17.3957L13.391 17.3955L0 8.46826V24.5354C0 26.4365 1.5467 27.9831 3.4479 27.9831H28.5522C30.4534 27.9831 32 26.4365 32 24.5354V8.46826L18.6093 17.3955Z" fill="#B4ED62"/>
</g>
<defs>
<clipPath id="clip0_158_283">
<rect width="32" height="32" fill="white"/>
</clipPath>
</defs>
</svg>
