<svg width="32" height="32" viewBox="0 0 32 32" fill="none" xmlns="http://www.w3.org/2000/svg">
<path d="M24.3287 21.1686C23.2832 20.1365 21.9781 20.1365 20.9393 21.1686C20.1469 21.9544 19.3545 22.7401 18.5754 23.5392C18.3623 23.7589 18.1825 23.8056 17.9228 23.6591C17.4101 23.3794 16.864 23.153 16.3713 22.8467C14.074 21.4017 12.1495 19.5439 10.4449 17.453C9.59917 16.4142 8.84672 15.3021 8.32067 14.0503C8.21412 13.7972 8.2341 13.6308 8.44053 13.4243C9.23293 12.6586 10.0054 11.8728 10.7845 11.0871C11.8699 9.99501 11.8699 8.7165 10.7778 7.61778C10.1585 6.99184 9.53924 6.37922 8.91997 5.75329C8.28071 5.11403 7.64812 4.46812 7.0022 3.83553C5.95676 2.81671 4.65161 2.81671 3.61282 3.84218C2.81376 4.62793 2.04798 5.43366 1.2356 6.20609C0.483143 6.9186 0.103586 7.79091 0.0236787 8.80972C-0.10284 10.4678 0.303352 12.0326 0.876018 13.5575C2.04798 16.7138 3.83257 19.5172 5.99671 22.0876C8.91997 25.5635 12.4092 28.3136 16.4911 30.298C18.329 31.1903 20.2334 31.8761 22.3044 31.9893C23.7294 32.0693 24.9679 31.7097 25.9601 30.5976C26.6393 29.8385 27.4051 29.146 28.1242 28.4202C29.1897 27.3414 29.1963 26.0363 28.1375 24.9709C26.8724 23.699 25.6005 22.4338 24.3287 21.1686ZM23.0568 15.8615L25.5139 15.442C25.1277 13.1846 24.0623 11.1403 22.4442 9.51556C20.7329 7.80423 18.5687 6.72549 16.1848 6.39254L15.8386 8.86299C17.6831 9.12269 19.3611 9.95505 20.6862 11.2802C21.9381 12.532 22.7572 14.1169 23.0568 15.8615ZM26.899 5.18062C24.0623 2.34393 20.4732 0.552689 16.5111 0L16.1648 2.47045C19.5875 2.94989 22.6906 4.50142 25.141 6.94523C27.465 9.26919 28.9899 12.2058 29.5426 15.4353L31.9997 15.0158C31.3538 11.2735 29.5892 7.87748 26.899 5.18062Z" fill="#B4ED62"/>
</svg>
