<svg width="40" height="40" viewBox="0 0 40 40" fill="none" xmlns="http://www.w3.org/2000/svg">
<path d="M20 0C8.97199 0 0 8.97199 0 20C0 31.028 8.97199 40 20 40C31.028 40 40 31.028 40 20C40 8.97199 31.0278 0 20 0ZM20 36.5714C10.8627 36.5714 3.4286 29.1373 3.4286 20C3.4286 10.8627 10.8627 3.4286 20 3.4286C29.1373 3.4286 36.5714 10.8627 36.5714 20C36.5714 29.1373 29.1371 36.5714 20 36.5714Z" fill="#B4ED62"/>
<path d="M30.1997 13.6392C30.0234 13.4991 29.8212 13.3952 29.6047 13.3334C29.3881 13.2716 29.1615 13.2531 28.9379 13.2789C28.7142 13.3047 28.4978 13.3744 28.301 13.4839C28.1043 13.5934 27.9311 13.7407 27.7913 13.9172L19.9022 23.8635L15.1818 18.8279C14.5362 18.136 13.4502 18.1036 12.7587 18.7487C12.0679 19.3972 12.0328 20.4819 12.6806 21.1718L18.7598 27.6573C18.92 27.8285 19.1137 27.965 19.3288 28.0583C19.5439 28.1516 19.7758 28.1998 20.0103 28.1998C20.0337 28.1998 20.0571 28.1998 20.0812 28.1987C20.3274 28.1882 20.5685 28.1248 20.788 28.0129C21.0075 27.901 21.2004 27.7432 21.3535 27.5501L30.4775 16.0467C30.7599 15.6906 30.8893 15.2369 30.8372 14.7854C30.7851 14.3339 30.5558 13.9216 30.1997 13.6392Z" fill="#B4ED62"/>
</svg>
